<svg width="63" height="36" viewBox="0 0 63 36" fill="none" xmlns="http://www.w3.org/2000/svg">
<path d="M11.7615 21.5132H9.09909L8.52565 22.7791H8L10.1845 18.0406H10.6829L12.8674 22.7791H12.3349L11.7615 21.5132ZM11.5772 21.1071L10.4303 18.5618L9.28341 21.1071H11.5772ZM13.6579 18.0406H14.1631V22.3458H16.8392V22.7791H13.6579V18.0406ZM18.1831 18.4738V20.3354H20.6543V20.7686H18.1831V22.7791H17.6779V18.0406H20.9547V18.4738H18.1831ZM21.9979 18.0406H22.5031V22.7791H21.9979V18.0406ZM25.6963 21.1409V22.7791H25.198V21.1409L23.2865 18.0406H23.8258L25.4642 20.7009L27.1026 18.0406H27.6078L25.6963 21.1409ZM31.1082 21.5132H28.4458L27.8723 22.7791H27.3467L29.5312 18.0406H30.0296L32.2141 22.7791H31.6816L31.1082 21.5132ZM30.9239 21.1071L29.777 18.5618L28.6301 21.1071H30.9239ZM32.6197 22.7791H36.033V23.104H32.6197V22.7791ZM38.2621 22.8197C37.9071 22.8197 37.5658 22.7633 37.2381 22.6505C36.915 22.5377 36.6647 22.3887 36.4872 22.2037L36.6851 21.8178C36.8581 21.9894 37.0879 22.1292 37.3746 22.2375C37.6614 22.3414 37.9572 22.3932 38.2621 22.3932C38.69 22.3932 39.0108 22.3165 39.2247 22.1631C39.4386 22.0051 39.5455 21.802 39.5455 21.5538C39.5455 21.3643 39.4864 21.2131 39.368 21.1003C39.2543 20.9875 39.1132 20.9017 38.9448 20.8431C38.7764 20.7799 38.542 20.7122 38.2416 20.64C37.8821 20.5497 37.5954 20.464 37.3815 20.3828C37.1676 20.2971 36.9833 20.1684 36.8285 19.9969C36.6783 19.8254 36.6032 19.5931 36.6032 19.2997C36.6032 19.0605 36.667 18.8439 36.7944 18.6498C36.9219 18.4513 37.1175 18.2934 37.3815 18.176C37.6455 18.0586 37.9732 18 38.3645 18C38.6376 18 38.9038 18.0383 39.1632 18.1151C39.4272 18.1873 39.6547 18.2888 39.8459 18.4197L39.6752 18.8191C39.475 18.6882 39.2611 18.5912 39.0335 18.528C38.806 18.4603 38.583 18.4265 38.3645 18.4265C37.9459 18.4265 37.6295 18.5077 37.4156 18.6702C37.2063 18.8281 37.1016 19.0334 37.1016 19.2862C37.1016 19.4757 37.1585 19.6291 37.2722 19.7465C37.3906 19.8593 37.5363 19.9473 37.7091 20.0105C37.8866 20.0691 38.1233 20.1346 38.4191 20.2068C38.7696 20.2925 39.0518 20.3783 39.2656 20.464C39.4841 20.5452 39.6684 20.6716 39.8186 20.8431C39.9688 21.01 40.0439 21.238 40.0439 21.5268C40.0439 21.766 39.9779 21.9848 39.8459 22.1834C39.7185 22.3774 39.5205 22.5331 39.252 22.6505C38.9835 22.7633 38.6535 22.8197 38.2621 22.8197ZM42.0064 18.4738H40.327V18.0406H44.1909V18.4738H42.5115V22.7791H42.0064V18.4738ZM46.8297 22.8197C46.2107 22.8197 45.7283 22.6437 45.3825 22.2917C45.0365 21.9397 44.8637 21.4275 44.8637 20.7551V18.0406H45.3688V20.7348C45.3688 21.2854 45.4939 21.696 45.7443 21.9668C45.9946 22.2375 46.3564 22.3729 46.8297 22.3729C47.3076 22.3729 47.6716 22.2375 47.922 21.9668C48.1723 21.696 48.2975 21.2854 48.2975 20.7348V18.0406H48.789V20.7551C48.789 21.4275 48.616 21.9397 48.2702 22.2917C47.9288 22.6437 47.4487 22.8197 46.8297 22.8197ZM50.3113 18.0406H52.2569C52.762 18.0406 53.2081 18.1422 53.5949 18.3452C53.9817 18.5438 54.2821 18.8236 54.496 19.1846C54.7099 19.5411 54.8169 19.9495 54.8169 20.4098C54.8169 20.8702 54.7099 21.2808 54.496 21.6418C54.2821 21.9983 53.9817 22.2782 53.5949 22.4812C53.2081 22.6798 52.762 22.7791 52.2569 22.7791H50.3113V18.0406ZM52.2295 22.3458C52.6483 22.3458 53.0146 22.2646 53.3286 22.1022C53.6427 21.9352 53.8861 21.7073 54.0591 21.4185C54.2321 21.1251 54.3185 20.7889 54.3185 20.4098C54.3185 20.0308 54.2321 19.6968 54.0591 19.408C53.8861 19.1146 53.6427 18.8868 53.3286 18.7243C53.0146 18.5574 52.6483 18.4738 52.2295 18.4738H50.8164V22.3458H52.2295ZM55.9513 18.0406H56.4565V22.7791H55.9513V18.0406ZM60.1002 22.8197C59.6269 22.8197 59.1968 22.7159 58.8099 22.5083C58.4276 22.2962 58.1273 22.0074 57.9088 21.6418C57.695 21.2763 57.588 20.8657 57.588 20.4098C57.588 19.954 57.695 19.5434 57.9088 19.1778C58.1273 18.8123 58.4276 18.5257 58.8099 18.3182C59.1968 18.106 59.6269 18 60.1002 18C60.5735 18 60.9991 18.1038 61.3768 18.3114C61.7591 18.5189 62.0594 18.8078 62.2779 19.1778C62.4963 19.5434 62.6056 19.954 62.6056 20.4098C62.6056 20.8657 62.4963 21.2786 62.2779 21.6486C62.0594 22.0142 61.7591 22.3007 61.3768 22.5083C60.9991 22.7159 60.5735 22.8197 60.1002 22.8197ZM60.1002 22.3729C60.478 22.3729 60.8193 22.2894 61.1242 22.1225C61.4292 21.9509 61.6681 21.7163 61.841 21.4185C62.014 21.1161 62.1004 20.7799 62.1004 20.4098C62.1004 20.0398 62.014 19.7058 61.841 19.408C61.6681 19.1057 61.4292 18.8709 61.1242 18.704C60.8193 18.5325 60.478 18.4468 60.1002 18.4468C59.7225 18.4468 59.3789 18.5325 59.0694 18.704C58.7645 18.8709 58.5232 19.1057 58.3457 19.408C58.1728 19.7058 58.0863 20.0398 58.0863 20.4098C58.0863 20.7799 58.1728 21.1161 58.3457 21.4185C58.5232 21.7163 58.7645 21.9509 59.0694 22.1225C59.3789 22.2894 59.7225 22.3729 60.1002 22.3729Z" fill="white"/>
<path fill-rule="evenodd" clip-rule="evenodd" d="M46.3257 9.53101C45.6704 8.52026 45.3428 7.36499 45.3428 6.06519C45.3428 4.47681 45.7979 3.26733 46.708 2.43701C47.6545 1.60669 48.8562 1.19141 50.3125 1.19141C52.4971 1.19141 54.1899 1.9856 55.3916 3.57422C56.6294 5.1626 57.7034 7.09424 58.6138 9.36865L59.0505 10.3975C59.0872 10.5059 59.1963 10.542 59.3784 10.5059C59.5603 10.4336 59.6514 10.3435 59.6514 10.2351V2.27441C59.6514 2.02173 59.5967 1.82324 59.4875 1.67871C59.3784 1.49829 59.1599 1.33594 58.8323 1.19141C58.0312 0.866455 56.9753 0.595703 55.6646 0.37915C54.354 0.126221 53.0613 0 51.7871 0C49.8574 0 48.0188 0.324951 46.271 0.974854C44.5234 1.58838 43.0854 2.56323 41.9565 3.89917C40.8645 5.19873 40.3184 6.80542 40.3184 8.71875C40.3184 10.2351 40.6641 11.5527 41.356 12.6721C42.0408 13.7803 42.8508 14.729 43.7856 15.5188H53.7148C53.4285 15.3323 53.1318 15.1414 52.8247 14.9465C51.1499 13.8633 49.821 12.9429 48.8379 12.1846C47.855 11.4265 47.0176 10.542 46.3257 9.53101ZM61 23.9026V24.5188H54.739C55.429 25.6887 55.7739 27.0469 55.7739 28.5933C55.7739 30.4707 55.3005 31.8064 54.3538 32.6006C53.4072 33.3589 52.2058 33.7378 50.7495 33.7378C49.1475 33.7378 47.7092 33.2144 46.4351 32.1675C45.197 31.1204 44.1594 29.9109 43.322 28.5391C42.8633 27.7534 42.3567 26.8315 41.8025 25.7732C41.5935 25.3745 41.3779 24.9563 41.1555 24.5188H39.9048L40.0452 31.8967C40.0452 32.1853 40.0815 32.4021 40.1543 32.5464C40.2637 32.6548 40.4094 32.781 40.5913 32.9255C41.2102 33.467 42.4116 33.9724 44.1958 34.4419C45.98 34.875 47.6912 35.0918 49.3293 35.0918C51.5505 35.0918 53.5527 34.6946 55.3369 33.9004C57.1572 33.0701 58.5774 31.9329 59.5967 30.4885C60.6162 29.0085 61.126 27.3296 61.126 25.4524C61.126 24.9138 61.084 24.3975 61 23.9026Z" fill="white"/>
<path fill-rule="evenodd" clip-rule="evenodd" d="M40.0112 34.5754C40.1932 34.5754 40.2842 34.6837 40.2842 34.9003C40.2842 35.1169 40.1932 35.2252 40.0112 35.2252C39.283 35.2252 38.1543 35.1891 36.6251 35.1169C35.0232 35.0448 33.8763 35.0086 33.1845 35.0086C32.2743 35.0086 31.1638 35.0448 29.8531 35.1169C28.6152 35.1891 27.6321 35.2252 26.904 35.2252C26.7583 35.2252 26.6855 35.1169 26.6855 34.9003C26.6855 34.6837 26.7583 34.5754 26.904 34.5754C27.8506 34.5754 28.5242 34.4851 28.9247 34.3046C29.3616 34.088 29.58 33.727 29.58 33.2215C29.58 32.6078 29.2159 31.5789 28.4878 30.1348L26.0153 25.3022H32.939L34.2222 27.8062C35.4964 30.3694 36.5524 32.1385 37.3897 33.1132C38.2271 34.088 39.1009 34.5754 40.0112 34.5754ZM28.3271 16.3022L20.5688 1.16246C20.5324 1.05415 20.3685 1 20.0773 1C19.8224 1 19.6586 1.05415 19.5858 1.16246L12.6399 16.3022H14.3472L17.6743 8.96062L21.4231 16.3022H28.3271ZM8.51077 25.3022L7.73469 26.9938C6.78806 29.0878 5.96886 30.6763 5.27709 31.7594C4.58532 32.8063 3.89356 33.5465 3.20178 33.9797C2.51001 34.3768 1.65441 34.5754 0.634957 34.5754C0.489321 34.5754 0.416504 34.6837 0.416504 34.9003C0.416504 35.1169 0.489321 35.2252 0.634957 35.2252C1.39954 35.2252 2.40079 35.1891 3.63869 35.1169C5.02223 35.0448 6.20552 35.0086 7.18856 35.0086C8.20801 35.0086 9.40953 35.0448 10.793 35.1169C12.031 35.1891 12.9776 35.2252 13.6329 35.2252C13.8149 35.2252 13.906 35.1169 13.906 34.9003C13.906 34.6837 13.8149 34.5754 13.6329 34.5754C12.0673 34.5754 10.8112 34.2143 9.86461 33.4923C8.95436 32.7703 8.49928 31.7594 8.49928 30.4597C8.49928 29.5571 8.73591 28.5823 9.20925 27.5354L10.2277 25.3022H8.51077Z" fill="white"/>
</svg>
